<svg xmlns="http://www.w3.org/2000/svg" enable-background="new 0 0 3800 3000" viewBox="0 0 3800 3000"><path fill="#d1def2" d="M3514.56,2306.57c-13.47-11.02-31.16-15.13-48.25-18.45c-119.25-23.17-241.62-23.24-363.1-23.23
		c-918.74,0.09-1837.48,0.19-2756.22,0.28l38.7,15.14c-49.34,6.18-100.52,12.99-142.44,39.74c-41.92,26.75-71.64,79.58-55.65,126.67
		c7.46,21.99,23.74,39.99,41.98,54.36c120.72,95.14,297.11,38.49,448.24,66.46c93.92,17.39,177.87,68.14,267.71,100.58
		c130.59,47.15,275.16,54.81,410,21.73c78.6-19.29,153.49-51.91,232.3-70.32c99.8-23.31,203.38-23.29,305.87-23.14
		c171.89,0.24,343.79,0.48,515.68,0.72c94.17,0.13,188.54,0.27,282.19,10.2c157.84,16.72,314.25,61.19,472.57,49.79
		c158.32-11.39,327.1-98.21,368.63-251.41C3542.07,2371.36,3542.1,2329.09,3514.56,2306.57z"/><path fill="#e6ebf4" d="M3531.14,2414.96l-3056.32-2.51c0,0-535.49-535.49-150.14-1000.91c385.35-465.42,538.51,287.39,635.14-418.8
		c115.46-843.78,1474.4-923.72,1511.2-261.88C2569.82,2507.15,4121.68,733.43,3531.14,2414.96z"/><polygon fill="#5ca88d" points="352.2 2203.57 360.95 2203.57 359.57 2262.57 352.2 2262.57"/><path fill="#7ac094" d="M434.33,2173.22c3.3-2.87,93.31-84.83,82.71-187.68c-10.6-102.85-96.49-128.3-72.1-248.12
				c24.39-119.82,0-202.53-74.22-203.58c-74.23-1.06-108.15,71.04-80.59,199.34c27.57,128.3-90.54,178.48-84.83,272.51
				C211.89,2114.07,297.55,2291.98,434.33,2173.22z"/><path fill="#f2faff" d="M319.31,1549.87c1.28,5.71,4.64,11.35,10.14,13.81c5.07,2.27,10.9,1.81,16.23,0.87
				c9.87-1.73,19.84-5.43,29.99-4.1c5.1,0.67,9.96,2.91,14.53,5.17c5.03,2.49,9.8,5.49,14.25,8.91c8.52,6.55,15.91,14.73,21,24.23
				c5.8,10.83,7.81,22.77,8.16,34.94c0.39,14.05-0.91,28.12,1.63,42.03c1.69,9.26,4.55,19.41,11.03,26.52
				c1.25,1.37,2.64,2.47,4.09,3.43c14.09-102.45-12.18-170.89-79.65-171.85c-20.37-0.29-37.64,5.01-51.5,15.4
				C319.26,1549.45,319.26,1549.65,319.31,1549.87z" opacity=".2"/><path fill="#202234" d="M373.87,1963.11c-10.31-18.99-10.45-42.57-4.78-62.97c3.04-10.93,7.69-21.38,13.03-31.37
				c2.16-4.03,4.82-7.85,6.78-11.98c1.42-2.98,1.14-5.59-0.01-8.63c-1.99-5.26-4.81-10.27-7.04-15.44
				c-2.24-5.21-4.4-10.47-6.23-15.84c-3.83-11.18-5.37-22.49-6.27-34.22c-0.88-11.58-0.46-23.56,3.24-34.66
				c3.3-9.91,10.44-17.91,14.04-27.61c-5.9-3.61-11.03-8.26-15.27-13.73c-4.89-6.32-8.69-13.35-11.68-20.78
				c-0.03,16.41-0.03,32.82-0.07,49.23c-0.17,65.4-0.44,130.8-0.6,196.2c-0.14,58.28-0.13,116.56-0.13,174.84
				c1.21-4.19,2.5-8.36,3.97-12.47c13.12-36.94,35-69.74,56.21-102.44C400.03,1991.96,382.91,1979.76,373.87,1963.11z" opacity=".15"/><path fill="#202234" d="M384.8,2204.79c-10.41,0.11-20.93-1.64-30.27-6.39c-9.86-5.02-17.61-13.29-23.06-22.83
				c-3.36-5.88-5.36-11.71-6.5-18.37c-1.23-7.16-2.51-13.91-7.22-19.69c-8.2-10.06-22.2-11.46-33.42-16.54
				c-10.52-4.76-18.59-13.81-24.83-23.33c-6.26-9.55-10.69-20.29-13.73-31.27c-6.43-23.26-7.13-48.11-4.15-71.97
				c2.75-22.07,8.57-43.94,19.52-63.42c13.05-23.21,30.2-43.93,42.41-67.62c5.99-11.62,10.45-24,12.4-36.96
				c2.32-15.44,0.87-31-2.65-46.14c-3.89-16.71-10.07-32.75-16.42-48.65c-5.93-14.82-11-29.78-14.39-45.37
				c1.55,14.69,4.07,30.33,7.64,46.94c27.57,128.3-90.54,178.48-84.83,272.51c5.75,94.66,71.83,242.33,179.59,199.1
				C384.86,2204.79,384.83,2204.79,384.8,2204.79z" opacity=".15"/><path fill="#b8debf" d="M453.7,1962.77c-0.43-0.44-1.14-0.44-1.58,0l-94.04,94.03v-159.89l52.4-55.35c0.42-0.44,0.41-1.15-0.04-1.58
				c-0.45-0.43-1.15-0.4-1.58,0.04l-50.78,53.63v-143.86l38.07-38.64c0.43-0.44,0.43-1.14-0.01-1.58c-0.44-0.43-1.15-0.43-1.58,0.01
				l-36.48,37.03V1622.9c0-0.62-0.5-1.12-1.11-1.12c-0.62,0-1.12,0.5-1.12,1.12v172.54l-28.96-24.68c-0.47-0.39-1.17-0.34-1.57,0.13
				c-0.4,0.47-0.34,1.17,0.13,1.57l30.41,25.91v162.49l-57.38-57.38c-0.43-0.43-1.14-0.43-1.58,0c-0.43,0.44-0.43,1.14,0,1.58
				l58.96,58.95v95.47c0,0,0,0,0,0v149.79c0,0.62,0.5,1.11,1.12,1.11c0.61,0,1.11-0.5,1.11-1.11v-149.33l95.61-95.61
				C454.14,1963.91,454.14,1963.21,453.7,1962.77z"/><polygon fill="#5ca88d" points="2558.95 2265.1 2567.71 2265.1 2566.33 2324.1 2558.95 2324.1"/><path fill="#7ac094" d="M2641.09,2234.75c3.3-2.87,93.31-84.83,82.71-187.68c-10.6-102.85-96.49-128.3-72.1-248.12
				c24.39-119.82,0-202.53-74.22-203.58c-74.23-1.06-108.15,71.04-80.59,199.34c27.57,128.3-90.54,178.48-84.83,272.51
				C2418.64,2175.6,2504.31,2353.5,2641.09,2234.75z"/><path fill="#f2faff" d="M2526.07,1611.4c1.28,5.71,4.64,11.35,10.14,13.81c5.07,2.27,10.9,1.81,16.23,0.87
				c9.87-1.73,19.84-5.43,29.99-4.1c5.1,0.67,9.96,2.91,14.53,5.17c5.03,2.49,9.8,5.49,14.25,8.91c8.52,6.55,15.91,14.73,21,24.23
				c5.8,10.83,7.81,22.77,8.16,34.94c0.39,14.05-0.91,28.12,1.63,42.03c1.69,9.26,4.55,19.41,11.03,26.52
				c1.25,1.37,2.64,2.47,4.09,3.43c14.09-102.45-12.18-170.89-79.65-171.85c-20.37-0.29-37.64,5.01-51.5,15.4
				C2526.01,1610.98,2526.02,1611.18,2526.07,1611.4z" opacity=".2"/><path fill="#202234" d="M2580.62,2024.64c-10.31-18.99-10.45-42.57-4.78-62.97c3.04-10.93,7.69-21.38,13.03-31.37
				c2.16-4.03,4.82-7.85,6.78-11.98c1.42-2.98,1.14-5.59-0.01-8.63c-1.99-5.26-4.81-10.27-7.04-15.44
				c-2.24-5.21-4.4-10.47-6.23-15.84c-3.83-11.18-5.37-22.49-6.27-34.22c-0.88-11.58-0.46-23.56,3.24-34.66
				c3.3-9.91,10.44-17.91,14.04-27.61c-5.9-3.61-11.03-8.26-15.27-13.73c-4.89-6.32-8.69-13.35-11.68-20.78
				c-0.03,16.41-0.03,32.82-0.07,49.23c-0.17,65.4-0.44,130.8-0.6,196.2c-0.14,58.28-0.13,116.56-0.13,174.84
				c1.21-4.19,2.5-8.36,3.97-12.47c13.12-36.94,35-69.74,56.21-102.44C2606.79,2053.49,2589.67,2041.29,2580.62,2024.64z" opacity=".15"/><path fill="#202234" d="M2591.56,2266.32c-10.41,0.11-20.93-1.64-30.27-6.39c-9.86-5.02-17.61-13.29-23.06-22.83
				c-3.36-5.88-5.36-11.71-6.5-18.37c-1.23-7.16-2.51-13.91-7.22-19.69c-8.2-10.06-22.2-11.46-33.42-16.54
				c-10.52-4.76-18.59-13.81-24.83-23.33c-6.26-9.55-10.69-20.29-13.73-31.27c-6.43-23.26-7.13-48.11-4.15-71.97
				c2.75-22.07,8.57-43.94,19.52-63.42c13.05-23.21,30.2-43.93,42.41-67.62c5.99-11.62,10.45-24,12.4-36.96
				c2.32-15.44,0.87-31-2.65-46.14c-3.89-16.71-10.07-32.75-16.43-48.65c-5.93-14.82-11-29.78-14.39-45.37
				c1.55,14.69,4.07,30.33,7.64,46.94c27.57,128.3-90.54,178.48-84.83,272.51c5.75,94.66,71.83,242.33,179.59,199.1
				C2591.62,2266.31,2591.59,2266.32,2591.56,2266.32z" opacity=".15"/><path fill="#b8debf" d="M2660.46,2024.3c-0.43-0.44-1.14-0.44-1.58,0l-94.04,94.03v-159.89l52.4-55.35
				c0.42-0.44,0.41-1.15-0.04-1.58c-0.45-0.43-1.15-0.4-1.58,0.04l-50.78,53.63v-143.86l38.07-38.64c0.43-0.44,0.43-1.14-0.01-1.58
				c-0.44-0.43-1.15-0.43-1.58,0.01l-36.48,37.03v-123.73c0-0.62-0.5-1.12-1.11-1.12c-0.62,0-1.11,0.5-1.11,1.12v172.54
				l-28.96-24.68c-0.47-0.39-1.17-0.34-1.57,0.13c-0.4,0.47-0.34,1.17,0.13,1.57l30.41,25.91v162.49l-57.38-57.38
				c-0.43-0.43-1.14-0.43-1.58,0c-0.43,0.44-0.43,1.14,0,1.58l58.96,58.95v95.47c0,0,0,0,0,0v149.79c0,0.62,0.5,1.11,1.11,1.11
				c0.61,0,1.11-0.5,1.11-1.11v-149.33l95.61-95.61C2660.89,2025.44,2660.89,2024.73,2660.46,2024.3z"/><polygon fill="#5ca88d" points="2387.49 2234.12 2375.05 2234.12 2377.02 2317.9 2387.49 2317.9"/><path fill="#7ac094" d="M2270.85,2191.01c-4.69-4.07-132.51-120.46-117.45-266.52c15.06-146.06,137.02-182.19,102.39-352.34
				c-34.63-170.15,0-287.6,105.4-289.1c105.4-1.51,153.59,100.88,114.44,283.08c-39.15,182.19,128.57,253.45,120.46,386.97
				C2586.74,2107.02,2465.09,2359.66,2270.85,2191.01z"/><path fill="#f2faff" d="M2434.19,1305.82c-1.82,8.1-6.59,16.11-14.4,19.61c-7.2,3.22-15.49,2.57-23.05,1.24
				c-14.01-2.46-28.18-7.72-42.59-5.83c-7.25,0.95-14.14,4.14-20.63,7.35c-7.15,3.53-13.91,7.8-20.24,12.65
				c-12.1,9.3-22.59,20.91-29.82,34.41c-8.24,15.37-11.09,32.33-11.58,49.62c-0.56,19.95,1.29,39.93-2.32,59.69
				c-2.39,13.15-6.46,27.56-15.67,37.67c-1.77,1.94-3.74,3.5-5.81,4.87c-20.02-145.48,17.3-242.68,113.11-244.04
				c28.93-0.42,53.46,7.12,73.13,21.87C2434.26,1305.23,2434.25,1305.51,2434.19,1305.82z" opacity=".2"/><path fill="#202234" d="M2356.71,1892.65c14.64-26.97,14.83-60.46,6.78-89.42c-4.32-15.52-10.92-30.36-18.51-44.55
				c-3.06-5.72-6.84-11.14-9.63-17.01c-2.01-4.23-1.61-7.94,0.02-12.25c2.82-7.46,6.83-14.58,9.99-21.93
				c3.18-7.4,6.24-14.87,8.85-22.49c5.43-15.87,7.63-31.93,8.9-48.6c1.25-16.44,0.65-33.45-4.6-49.22
				c-4.68-14.07-14.82-25.44-19.94-39.2c8.37-5.12,15.66-11.73,21.68-19.5c6.95-8.97,12.34-18.95,16.59-29.51
				c0.04,23.31,0.04,46.61,0.1,69.91c0.24,92.87,0.62,185.75,0.85,278.62c0.2,82.76,0.18,165.52,0.18,248.28
				c-1.72-5.95-3.56-11.87-5.63-17.71c-18.63-52.46-49.71-99.03-79.81-145.47C2319.56,1933.62,2343.87,1916.3,2356.71,1892.65z" opacity=".15"/><path fill="#202234" d="M2341.18,2235.85c14.79,0.16,29.72-2.32,42.99-9.07c14.01-7.13,25-18.87,32.75-32.42
				c4.78-8.35,7.61-16.63,9.22-26.09c1.75-10.17,3.56-19.76,10.25-27.96c11.64-14.29,31.53-16.27,47.46-23.49
				c14.94-6.76,26.4-19.61,35.26-33.13c8.9-13.57,15.18-28.81,19.49-44.41c9.14-33.03,10.12-68.33,5.9-102.2
				c-3.91-31.34-12.17-62.4-27.72-90.06c-18.53-32.96-42.89-62.38-60.23-96.03c-8.51-16.5-14.84-34.08-17.6-52.49
				c-3.29-21.93-1.24-44.03,3.76-65.53c5.52-23.73,14.29-46.51,23.32-69.08c8.42-21.04,15.62-42.29,20.43-64.43
				c-2.21,20.86-5.78,43.07-10.85,66.65c-39.15,182.19,128.57,253.45,120.46,386.97c-8.17,134.42-102,344.13-255.03,282.74
				C2341.1,2235.85,2341.14,2235.85,2341.18,2235.85z" opacity=".15"/><path fill="#b8debf" d="M2243.35,1892.17c0.62-0.62,1.62-0.62,2.24,0l133.54,133.53v-227.05l-74.41-78.6
				c-0.6-0.63-0.58-1.64,0.06-2.24c0.64-0.6,1.64-0.57,2.24,0.06l72.11,76.16v-204.29l-54.06-54.88c-0.61-0.62-0.61-1.62,0.02-2.24
				c0.63-0.61,1.63-0.61,2.24,0.02l51.81,52.59v-175.7c0-0.88,0.71-1.59,1.58-1.59c0.88,0,1.58,0.71,1.58,1.59v245.02l41.12-35.04
				c0.67-0.56,1.67-0.49,2.23,0.18c0.57,0.67,0.49,1.67-0.18,2.23l-43.18,36.79v230.75l81.48-81.48c0.62-0.62,1.62-0.62,2.24,0
				c0.62,0.62,0.62,1.62,0,2.24l-83.72,83.72v135.58c0,0,0,0,0,0.01v212.71c0,0.88-0.71,1.58-1.58,1.58c-0.87,0-1.58-0.71-1.58-1.58
				v-212.06l-135.77-135.77C2242.73,1893.79,2242.73,1892.78,2243.35,1892.17z"/><polygon fill="#5ca88d" points="568.35 2175.99 581.29 2175.99 579.25 2263.15 568.35 2263.15"/><path fill="#7ac094" d="M689.7,2131.15c4.88-4.23,137.85-125.32,122.18-277.27c-15.66-151.95-142.55-189.54-106.52-366.56
				c36.03-177.01,0-299.2-109.65-300.76c-109.65-1.57-159.78,104.95-119.05,294.5c40.73,189.54-133.76,263.68-125.32,402.59
				C361.07,2043.76,487.62,2306.59,689.7,2131.15z"/><path fill="#f2faff" d="M519.77,1210.24c1.9,8.43,6.86,16.77,14.98,20.4c7.49,3.35,16.1,2.67,23.98,1.29
				c14.58-2.56,29.32-8.03,44.31-6.06c7.54,0.99,14.71,4.3,21.47,7.65c7.44,3.68,14.47,8.11,21.05,13.17
				c12.59,9.68,23.5,21.76,31.02,35.8c8.57,15.99,11.54,33.63,12.05,51.61c0.59,20.75-1.34,41.54,2.41,62.1
				c2.49,13.68,6.72,28.67,16.3,39.19c1.84,2.02,3.9,3.64,6.04,5.07c20.82-151.35-18-252.47-117.68-253.89
				c-30.09-0.43-55.61,7.41-76.08,22.75C519.69,1209.63,519.7,1209.92,519.77,1210.24z" opacity=".2"/><path fill="#202234" d="M600.37,1820.74c-15.24-28.05-15.43-62.89-7.06-93.03c4.49-16.15,11.36-31.59,19.25-46.34
				c3.18-5.96,7.12-11.6,10.02-17.7c2.09-4.4,1.68-8.26-0.02-12.74c-2.94-7.77-7.11-15.17-10.4-22.81
				c-3.31-7.7-6.49-15.47-9.21-23.4c-5.65-16.51-7.93-33.22-9.25-50.56c-1.3-17.11-0.68-34.81,4.78-51.21
				c4.87-14.64,15.42-26.46,20.74-40.78c-8.71-5.33-16.29-12.2-22.55-20.29c-7.23-9.33-12.84-19.72-17.27-30.71
				c-0.04,24.24-0.04,48.49-0.11,72.73c-0.25,96.62-0.64,193.24-0.88,289.86c-0.21,86.1-0.19,172.19-0.19,258.29
				c1.79-6.19,3.7-12.35,5.86-18.42c19.39-54.58,51.71-103.03,83.04-151.33C639.02,1863.37,613.73,1845.35,600.37,1820.74z" opacity=".15"/><path fill="#202234" d="M616.52,2177.79c-15.38,0.17-30.92-2.41-44.72-9.44c-14.57-7.41-26.01-19.64-34.07-33.73
				c-4.97-8.69-7.91-17.3-9.6-27.14c-1.81-10.58-3.71-20.55-10.66-29.08c-12.11-14.87-32.8-16.93-49.37-24.44
				c-15.54-7.04-27.46-20.4-36.68-34.47c-9.25-14.11-15.79-29.98-20.28-46.2c-9.51-34.36-10.53-71.08-6.14-106.32
				c4.07-32.61,12.66-64.91,28.83-93.69c19.27-34.29,44.61-64.9,62.66-99.9c8.85-17.16,15.44-35.46,18.31-54.6
				c3.43-22.81,1.29-45.8-3.91-68.17c-5.74-24.69-14.87-48.39-24.27-71.88c-8.75-21.89-16.25-43.99-21.25-67.02
				c2.3,21.7,6.02,44.81,11.29,69.34c40.73,189.54-133.76,263.68-125.32,402.59c8.5,139.84,106.11,358.01,265.32,294.14
				C616.61,2177.79,616.57,2177.79,616.52,2177.79z" opacity=".15"/><path fill="#b8debf" d="M718.31,1820.24c-0.65-0.65-1.69-0.65-2.33,0l-138.92,138.92v-236.21l77.41-81.76
				c0.63-0.66,0.6-1.7-0.06-2.33c-0.66-0.63-1.7-0.59-2.33,0.07l-75.02,79.23v-212.54l56.24-57.09c0.64-0.65,0.63-1.69-0.02-2.33
				c-0.65-0.64-1.69-0.64-2.33,0.02l-53.9,54.71v-182.79c0-0.91-0.73-1.65-1.65-1.65c-0.91,0-1.65,0.74-1.65,1.65v254.9
				l-42.78-36.45c-0.69-0.59-1.73-0.51-2.32,0.19c-0.59,0.69-0.51,1.73,0.19,2.32l44.92,38.28v240.05L489,1732.67
				c-0.64-0.64-1.69-0.64-2.33,0c-0.64,0.64-0.64,1.68,0,2.33l87.1,87.09v141.05c0,0,0,0,0,0v221.29c0,0.91,0.74,1.65,1.65,1.65
				c0.91,0,1.65-0.74,1.65-1.65v-220.61l141.25-141.25C718.95,1821.93,718.95,1820.88,718.31,1820.24z"/><g><path fill="#394ca4" d="M315.88,2310.63c0,0,26.28-190.77-26.05-171.94C237.51,2157.52,261.53,2233.97,315.88,2310.63z"/><path fill="#100959" d="M319.34,2308.78c0,0-107-188.17-180.82-123.47C64.7,2250.02,319.34,2308.78,319.34,2308.78z"/><path fill="#f2faff" d="M142.62,2187.42c2.14,5.88,5.65,10.86,11.99,12.4c7.92,1.92,16.55-0.41,24.51-0.86
				c9.08-0.51,17.79,0.84,26.02,4.79c7.95,3.82,14.76,9.6,21.49,15.22c6.74,5.63,13.61,11.76,21.49,15.75
				c7.48,3.78,16.35,5.4,24.57,6.68c0.01,0,0.02,0,0.02,0c-36.94-45.39-89.18-91.4-131.38-58.39
				C141.67,2184.5,142.09,2185.97,142.62,2187.42z" opacity=".5"/><g><path fill="#4094f2" d="M168.77,2412.45h923.76l-13.25-46.18l-31.16-109.38c-22.08-77.21-98.78-125.53-178.01-112.03l-39.99,6.94
					c-3.03,0.51-5.93,0.76-8.83,0.76c-17.66,0-34.44-8.83-44.41-23.85c-68.63-102.94-223.8-90.2-274.77,22.59l-6.81,15.14
					c-12.02,26.71-43.39,38.65-70.12,26.68l-39.88-17.85c-23.34-10.47-49.33-2.65-63.71,15.77c-5.3,6.68-9.09,14.76-10.6,23.84
					l-5.93,34.57c-1.52,8.58-4.8,16.15-9.46,22.46c-0.88,1.14-1.77,2.27-2.65,3.28c-8.07,9.34-19.05,15.52-31.03,17.66
					c-3.02,0.63-6.31,0.88-9.46,0.88c-10.01,0-20.15-2.74-29.36-8.89c-20.77-13.86-48.61-10.41-66.27,7.25l-26.8,26.8
					C95.5,2353.41,119.95,2412.45,168.77,2412.45z"/><path fill="#f2faff" d="M132.61,2338.72c5.41-8.05,8.67-17.42,14.49-25.19c12.02-16.06,34.05-19.29,52.79-16.15
					c12.6,2.12,24.49,6.63,37.46,5.47c10.12-0.91,20.19-2.5,30.02-5.08c19.3-5.08,38.86-14.53,49.69-32.06
					c10.78-17.43,5.64-40.52,18.38-57.06c13.7-17.79,37.3-16.12,56.31-9.16c10.66,3.9,20.11,10.44,30.8,14.11
					c12.55,4.31,26.02,4.85,38.93,1.9c6.68-1.53,13.15-3.9,19.29-6.92c3.81-1.88,7.28-3.91,9.97-7.26
					c4.42-5.51,6.08-12.8,5.82-19.75c-0.15-4.23-1.09-8.46-2.7-12.34c-12.9,24.71-42.93,35.42-68.69,23.89l-39.88-17.85
					c-23.34-10.47-49.33-2.65-63.71,15.77c-5.3,6.68-9.09,14.76-10.6,23.84l-5.93,34.57c-1.52,8.58-4.8,16.15-9.46,22.46
					c-0.88,1.14-1.77,2.27-2.65,3.28c-8.07,9.33-19.05,15.52-31.03,17.66c-3.02,0.63-6.31,0.88-9.46,0.88
					c-10.01,0-20.15-2.74-29.36-8.89c-20.77-13.86-48.61-10.41-66.27,7.25l-26.8,26.8c-9.74,9.74-14.78,21.43-15.91,33.2
					C121.81,2350.39,128.06,2345.51,132.61,2338.72z" opacity=".2"/><path fill="#f2faff" d="M250.3,2412.45h842.23l-13.25-46.18c-41.63-37.34-99.16-55.63-157.7-45.54l-31.16,5.3l-16.78,2.78
					c-3.66,0.63-7.31,0.88-10.85,0.88c-7.82,0-15.52-1.39-22.71-4.16c-12.11-4.67-22.71-12.87-30.28-24.22
					c-10.6-16.02-23.09-29.65-36.71-40.88c-5.3-4.54-10.72-8.58-16.4-12.24c-30.66-20.31-65.85-30.4-101.18-30.78
					c-20.69-0.38-41.25,2.65-60.93,9.08c-47.81,15.14-90.2,49.58-113.79,101.93l-8.2,17.92c-14.51,32.17-52.23,46.43-84.27,32.04
					l-24.22-10.85l-23.34-10.47c-10.6-4.79-21.7-6.3-32.3-5.3c-27.51,2.65-51.73,23.09-56.77,52.73L250.3,2412.45z" opacity=".25"/><path fill="#100959" d="M364.51,2242.18c0,9.07,7.35,16.42,16.42,16.42c9.07,0,16.42-7.35,16.42-16.42
					c0-9.07-7.35-16.42-16.42-16.42C371.86,2225.76,364.51,2233.12,364.51,2242.18z"/><path fill="#202234" d="M368.31,2246.07c0,9.07,7.35,16.42,16.42,16.42c9.07,0,16.42-7.35,16.42-16.42
					c0-9.07-7.35-16.42-16.42-16.42C375.66,2229.65,368.31,2237,368.31,2246.07z" opacity=".15"/><path fill="#394ca4" d="M602.63,2367.6c0,9.07,7.35,16.42,16.42,16.42c9.07,0,16.42-7.35,16.42-16.42
					c0-9.07-7.35-16.42-16.42-16.42C609.98,2351.18,602.63,2358.53,602.63,2367.6z"/><path fill="#202234" d="M539.62,2158.88c0,17.48,14.17,31.64,31.64,31.64c17.48,0,31.65-14.17,31.65-31.64
					s-14.17-31.65-31.65-31.65C553.79,2127.23,539.62,2141.4,539.62,2158.88z" opacity=".15"/><path fill="#394ca4" d="M543.59,2147.63c0,17.48,14.17,31.64,31.64,31.64c17.48,0,31.65-14.17,31.65-31.64
					c0-17.48-14.17-31.65-31.65-31.65C557.76,2115.99,543.59,2130.15,543.59,2147.63z"/><g><path fill="#100959" d="M365.11,2403.81c0,0,74.05-93.37,40.25-99.81C371.55,2297.56,360.28,2345.85,365.11,2403.81z"/><path fill="#f2faff" d="M367.49,2346.41c3.45-0.82,5.61-3.23,7.09-6.35c2.97-6.26,2.76-13.6,6.17-19.68
					c1.72-3.06,4.4-5.4,7.57-6.86c3.13-1.44,6.63-2.16,9.61-3.93c2.88-1.71,3.41-3.78,1.18-6.16
					c-17.69,0.24-28.13,17.44-32.55,43.14C366.86,2346.51,367.18,2346.48,367.49,2346.41z" opacity=".5"/><path fill="#394ca4" d="M365.11,2403.81c0,0-46.68-125.56-98.2-93.37C215.4,2342.63,365.11,2403.81,365.11,2403.81z"/><path fill="#f2faff" d="M269.01,2309.32c0.54,1.2,1.74,2.31,2.67,2.68c2.06,0.84,4.71,0.51,6.88,0.47
					c4.78-0.09,9.71-0.43,14.43,0.52c5.08,1.02,9.94,3.96,14.12,6.92c7.69,5.43,12.65,13.89,20.55,18.95
					c1.28,0.82,3.09,1.72,5.14,2.5C315.48,2316.39,292.83,2296.36,269.01,2309.32z" opacity=".2"/><path fill="#394ca4" d="M365.11,2403.81c0,0,172.25-20.93,128.78-48.29C450.43,2328.15,365.11,2403.81,365.11,2403.81z"/><path fill="#f2faff" d="M422.63,2365.58c5.07-0.93,8.8-3.92,13.12-6.49c4.08-2.43,8.51-4.4,13.18-5.38
					c6.61-1.39,13.25,0.3,19.89-0.61c2.32-0.32,5.04-1.11,5.91-3.41c-17.21-1.06-37.1,6.43-55.19,16.18
					C420.57,2365.83,421.6,2365.77,422.63,2365.58z" opacity=".2"/></g></g></g><g><path fill="#394ca4" d="M1816.92,2310.63c0,0,26.28-190.77-26.05-171.94C1738.55,2157.52,1762.57,2233.97,1816.92,2310.63z"/><path fill="#100959" d="M1820.38,2308.78c0,0-107-188.17-180.82-123.47C1565.74,2250.02,1820.38,2308.78,1820.38,2308.78z"/><path fill="#f2faff" d="M1643.66,2187.42c2.14,5.88,5.65,10.86,11.99,12.4c7.92,1.92,16.55-0.41,24.51-0.86
				c9.08-0.51,17.79,0.84,26.02,4.79c7.95,3.82,14.76,9.6,21.48,15.22c6.74,5.63,13.61,11.76,21.49,15.75
				c7.48,3.78,16.35,5.4,24.57,6.68c0.01,0,0.02,0,0.02,0c-36.95-45.39-89.18-91.4-131.38-58.39
				C1642.71,2184.5,1643.14,2185.97,1643.66,2187.42z" opacity=".5"/><g><path fill="#4094f2" d="M1669.81,2412.45h923.76l-13.25-46.18l-31.16-109.38c-22.08-77.21-98.78-125.53-178-112.03l-39.99,6.94
					c-3.03,0.51-5.93,0.76-8.83,0.76c-17.66,0-34.44-8.83-44.41-23.85c-68.63-102.94-223.8-90.2-274.77,22.59l-6.81,15.14
					c-12.02,26.71-43.39,38.65-70.13,26.68l-39.88-17.85c-23.34-10.47-49.33-2.65-63.71,15.77c-5.3,6.68-9.09,14.76-10.6,23.84
					l-5.93,34.57c-1.52,8.58-4.79,16.15-9.46,22.46c-0.88,1.14-1.77,2.27-2.65,3.28c-8.07,9.34-19.05,15.52-31.04,17.66
					c-3.02,0.63-6.31,0.88-9.46,0.88c-10.01,0-20.15-2.74-29.36-8.89c-20.77-13.86-48.61-10.41-66.27,7.25l-26.8,26.8
					C1596.54,2353.41,1620.99,2412.45,1669.81,2412.45z"/><path fill="#f2faff" d="M1633.66,2338.72c5.41-8.05,8.67-17.42,14.49-25.19c12.02-16.06,34.05-19.29,52.78-16.15
					c12.6,2.12,24.49,6.63,37.46,5.47c10.12-0.91,20.19-2.5,30.02-5.08c19.3-5.08,38.86-14.53,49.69-32.06
					c10.78-17.43,5.64-40.52,18.38-57.06c13.7-17.79,37.3-16.12,56.31-9.16c10.66,3.9,20.11,10.44,30.8,14.11
					c12.55,4.31,26.02,4.85,38.93,1.9c6.68-1.53,13.15-3.9,19.29-6.92c3.81-1.88,7.28-3.91,9.97-7.26
					c4.42-5.51,6.08-12.8,5.82-19.75c-0.15-4.23-1.09-8.46-2.7-12.34c-12.9,24.71-42.93,35.42-68.69,23.89l-39.88-17.85
					c-23.34-10.47-49.33-2.65-63.71,15.77c-5.3,6.68-9.09,14.76-10.6,23.84l-5.93,34.57c-1.52,8.58-4.79,16.15-9.46,22.46
					c-0.88,1.14-1.77,2.27-2.65,3.28c-8.07,9.33-19.05,15.52-31.04,17.66c-3.02,0.63-6.31,0.88-9.46,0.88
					c-10.01,0-20.15-2.74-29.36-8.89c-20.77-13.86-48.61-10.41-66.27,7.25l-26.8,26.8c-9.74,9.74-14.78,21.43-15.91,33.2
					C1622.85,2350.39,1629.1,2345.51,1633.66,2338.72z" opacity=".2"/><path fill="#f2faff" d="M1751.34,2412.45h842.23l-13.25-46.18c-41.63-37.34-99.16-55.63-157.7-45.54l-31.16,5.3l-16.78,2.78
					c-3.66,0.63-7.32,0.88-10.85,0.88c-7.82,0-15.52-1.39-22.71-4.16c-12.11-4.67-22.71-12.87-30.28-24.22
					c-10.6-16.02-23.09-29.65-36.71-40.88c-5.3-4.54-10.72-8.58-16.4-12.24c-30.66-20.31-65.85-30.4-101.18-30.78
					c-20.69-0.38-41.25,2.65-60.93,9.08c-47.81,15.14-90.2,49.58-113.79,101.93l-8.2,17.92c-14.51,32.17-52.23,46.43-84.27,32.04
					l-24.22-10.85l-23.34-10.47c-10.6-4.79-21.7-6.3-32.3-5.3c-27.51,2.65-51.72,23.09-56.77,52.73L1751.34,2412.45z" opacity=".25"/><path fill="#100959" d="M1865.55,2242.18c0,9.07,7.35,16.42,16.42,16.42c9.07,0,16.42-7.35,16.42-16.42
					c0-9.07-7.35-16.42-16.42-16.42C1872.9,2225.76,1865.55,2233.12,1865.55,2242.18z"/><path fill="#202234" d="M1869.36,2246.07c0,9.07,7.35,16.42,16.42,16.42s16.42-7.35,16.42-16.42c0-9.07-7.35-16.42-16.42-16.42
					S1869.36,2237,1869.36,2246.07z" opacity=".15"/><path fill="#394ca4" d="M2103.67,2367.6c0,9.07,7.35,16.42,16.42,16.42c9.07,0,16.42-7.35,16.42-16.42
					c0-9.07-7.35-16.42-16.42-16.42C2111.02,2351.18,2103.67,2358.53,2103.67,2367.6z"/><path fill="#202234" d="M2040.66,2158.88c0,17.48,14.17,31.64,31.64,31.64c17.48,0,31.65-14.17,31.65-31.64
					s-14.17-31.65-31.65-31.65C2054.83,2127.23,2040.66,2141.4,2040.66,2158.88z" opacity=".15"/><path fill="#394ca4" d="M2044.63,2147.63c0,17.48,14.17,31.64,31.65,31.64c17.48,0,31.65-14.17,31.65-31.64
					c0-17.48-14.17-31.65-31.65-31.65C2058.8,2115.99,2044.63,2130.15,2044.63,2147.63z"/><g><path fill="#100959" d="M1866.15,2403.81c0,0,74.05-93.37,40.25-99.81C1872.59,2297.56,1861.32,2345.85,1866.15,2403.81z"/><path fill="#f2faff" d="M1868.53,2346.41c3.45-0.82,5.61-3.23,7.09-6.35c2.97-6.26,2.75-13.6,6.17-19.68
					c1.72-3.06,4.4-5.4,7.57-6.86c3.13-1.44,6.63-2.16,9.61-3.93c2.88-1.71,3.41-3.78,1.18-6.16
					c-17.69,0.24-28.13,17.44-32.55,43.14C1867.91,2346.51,1868.23,2346.48,1868.53,2346.41z" opacity=".5"/><path fill="#394ca4" d="M1866.15,2403.81c0,0-46.68-125.56-98.2-93.37C1716.44,2342.63,1866.15,2403.81,1866.15,2403.81z"/><path fill="#f2faff" d="M1770.06,2309.32c0.54,1.2,1.74,2.31,2.67,2.68c2.06,0.84,4.71,0.51,6.88,0.47
					c4.79-0.09,9.71-0.43,14.43,0.52c5.08,1.02,9.94,3.96,14.12,6.92c7.69,5.43,12.65,13.89,20.54,18.95
					c1.28,0.82,3.09,1.72,5.14,2.5C1816.53,2316.39,1793.88,2296.36,1770.06,2309.32z" opacity=".2"/><path fill="#394ca4" d="M1866.15,2403.81c0,0,172.25-20.93,128.78-48.29C1951.47,2328.15,1866.15,2403.81,1866.15,2403.81z"/><path fill="#f2faff" d="M1923.67,2365.58c5.07-0.93,8.8-3.92,13.12-6.49c4.08-2.43,8.51-4.4,13.18-5.38
					c6.61-1.39,13.25,0.3,19.89-0.61c2.32-0.32,5.04-1.11,5.91-3.41c-17.2-1.06-37.1,6.43-55.19,16.18
					C1921.61,2365.83,1922.64,2365.77,1923.67,2365.58z" opacity=".2"/></g></g></g><g><path fill="#394ca4" d="M3377.64,2256.96c0,0-40.13-291.31,39.77-262.56C3497.31,2023.16,3460.64,2139.9,3377.64,2256.96z"/><path fill="#100959" d="M3372.36,2254.15c0,0,163.4-287.35,276.13-188.55C3761.21,2164.41,3372.36,2254.15,3372.36,2254.15z"/><path fill="#f2faff" d="M3642.22,2068.82c-3.27,8.97-8.62,16.58-18.3,18.93c-12.1,2.93-25.27-0.63-37.43-1.31
				c-13.87-0.78-27.16,1.28-39.74,7.32c-12.15,5.84-22.54,14.66-32.81,23.24c-10.29,8.61-20.78,17.96-32.82,24.05
				c-11.42,5.77-24.97,8.24-37.52,10.21c-0.01,0-0.02,0-0.04,0c56.42-69.31,136.19-139.58,200.63-89.16
				C3643.67,2064.35,3643.02,2066.6,3642.22,2068.82z" opacity=".5"/><g><path fill="#4094f2" d="M3602.29,2412.45H2191.64l20.23-70.51l47.59-167.03c33.71-117.9,150.84-191.69,271.83-171.08l61.07,10.59
					c4.62,0.77,9.06,1.16,13.49,1.16c26.97,0,52.59-13.49,67.82-36.42c104.8-157.2,341.76-137.74,419.59,34.49l10.41,23.12
					c18.35,40.79,66.26,59.02,107.09,40.75l60.9-27.26c35.64-15.99,75.33-4.04,97.29,24.08c8.09,10.21,13.88,22.54,16.18,36.41
					l9.05,52.79c2.32,13.1,7.32,24.66,14.45,34.29c1.35,1.74,2.7,3.47,4.05,5.01c12.33,14.26,29.09,23.7,47.39,26.97
					c4.62,0.96,9.63,1.35,14.45,1.35c15.28,0,30.77-4.19,44.83-13.58c31.72-21.17,74.24-15.89,101.2,11.07l40.92,40.92
					C3714.18,2322.3,3676.84,2412.45,3602.29,2412.45z"/><path fill="#f2faff" d="M3657.5,2299.87c-8.26-12.29-13.24-26.6-22.12-38.46c-18.36-24.52-51.99-29.46-80.6-24.66
					c-19.25,3.23-37.4,10.13-57.21,8.35c-15.45-1.38-30.83-3.82-45.84-7.76c-29.48-7.75-59.34-22.19-75.88-48.96
					c-16.46-26.62-8.62-61.87-28.07-87.13c-20.92-27.17-56.95-24.61-85.99-13.99c-16.27,5.95-30.71,15.94-47.04,21.55
					c-19.16,6.58-39.73,7.41-59.45,2.9c-10.2-2.33-20.08-5.95-29.46-10.57c-5.81-2.86-11.12-5.98-15.23-11.09
					c-6.75-8.42-9.28-19.55-8.89-30.16c0.24-6.46,1.67-12.91,4.13-18.84c19.7,37.73,65.55,54.09,104.9,36.48l60.9-27.26
					c35.64-15.99,75.33-4.04,97.29,24.08c8.09,10.21,13.88,22.54,16.18,36.41l9.05,52.79c2.32,13.1,7.32,24.66,14.45,34.29
					c1.35,1.74,2.7,3.47,4.05,5.01c12.33,14.26,29.09,23.7,47.39,26.97c4.62,0.96,9.63,1.35,14.45,1.35
					c15.28,0,30.77-4.19,44.83-13.58c31.72-21.17,74.24-15.89,101.2,11.07l40.92,40.92c14.87,14.88,22.57,32.73,24.29,50.7
					C3674,2317.68,3664.46,2310.23,3657.5,2299.87z" opacity=".2"/><path fill="#f2faff" d="M3477.79,2412.45H2191.64l20.23-70.51c63.58-57.03,151.42-84.96,240.81-69.54l47.59,8.09l25.62,4.24
					c5.58,0.96,11.17,1.35,16.57,1.35c11.94,0,23.7-2.12,34.68-6.36c18.49-7.12,34.68-19.66,46.23-36.99
					c16.18-24.46,35.26-45.27,56.06-62.42c8.09-6.93,16.37-13.1,25.04-18.69c46.82-31.01,100.56-46.42,154.51-47
					c31.59-0.58,63,4.05,93.05,13.87c73.01,23.12,137.74,75.71,173.77,155.66l12.53,27.36c22.15,49.13,79.75,70.9,128.69,48.93
					l36.99-16.57l35.64-15.99c16.18-7.32,33.14-9.63,49.32-8.09c42,4.04,78.99,35.25,86.7,80.52L3477.79,2412.45z" opacity=".25"/><path fill="#100959" d="M3303.38,2152.44c0,13.85-11.22,25.07-25.07,25.07c-13.85,0-25.07-11.23-25.07-25.07
					c0-13.85,11.23-25.08,25.07-25.08C3292.15,2127.37,3303.38,2138.59,3303.38,2152.44z"/><path fill="#202234" d="M3297.57,2158.38c0,13.85-11.23,25.07-25.07,25.07c-13.85,0-25.07-11.23-25.07-25.07
					c0-13.85,11.23-25.08,25.07-25.08C3286.34,2133.3,3297.57,2144.53,3297.57,2158.38z" opacity=".15"/><path fill="#394ca4" d="M2939.75,2343.97c0,13.85-11.22,25.07-25.07,25.07c-13.85,0-25.08-11.23-25.08-25.07
					c0-13.85,11.23-25.08,25.08-25.08C2928.53,2318.89,2939.75,2330.12,2939.75,2343.97z"/><path fill="#202234" d="M3035.97,2025.23c0,26.69-21.64,48.32-48.32,48.32c-26.69,0-48.33-21.64-48.33-48.32
					s21.64-48.33,48.33-48.33C3014.33,1976.9,3035.97,1998.54,3035.97,2025.23z" opacity=".15"/><path fill="#394ca4" d="M3029.91,2008.05c0,26.69-21.63,48.32-48.32,48.32c-26.69,0-48.33-21.63-48.33-48.32
					s21.64-48.33,48.33-48.33C3008.27,1959.73,3029.91,1981.36,3029.91,2008.05z"/><g><path fill="#100959" d="M3302.46,2399.25c0,0-113.08-142.58-61.46-152.41C3292.63,2237.01,3309.83,2310.76,3302.46,2399.25z"/><path fill="#f2faff" d="M3298.83,2311.6c-5.27-1.25-8.56-4.94-10.83-9.7c-4.54-9.56-4.21-20.77-9.42-30.05
					c-2.63-4.67-6.71-8.25-11.56-10.48c-4.79-2.2-10.12-3.31-14.67-6c-4.4-2.6-5.21-5.77-1.8-9.4
					c27.01,0.37,42.96,26.63,49.71,65.88C3299.78,2311.76,3299.3,2311.71,3298.83,2311.6z" opacity=".5"/><path fill="#394ca4" d="M3302.46,2399.25c0,0,71.29-191.75,149.95-142.58C3531.08,2305.84,3302.46,2399.25,3302.46,2399.25z"/><path fill="#f2faff" d="M3449.21,2254.96c-0.82,1.84-2.66,3.52-4.07,4.1c-3.14,1.28-7.19,0.78-10.51,0.72
					c-7.31-0.14-14.83-0.65-22.04,0.79c-7.76,1.56-15.17,6.05-21.57,10.56c-11.74,8.29-19.32,21.2-31.38,28.94
					c-1.95,1.25-4.72,2.63-7.85,3.82C3378.25,2265.76,3412.83,2235.17,3449.21,2254.96z" opacity=".2"/><path fill="#394ca4" d="M3302.46,2399.25c0,0-263.04-31.96-196.66-73.75C3172.17,2283.71,3302.46,2399.25,3302.46,2399.25z"/><path fill="#f2faff" d="M3214.62,2340.88c-7.75-1.42-13.44-5.98-20.04-9.91c-6.24-3.71-13-6.72-20.12-8.22
					c-10.09-2.12-20.24,0.45-30.37-0.93c-3.54-0.48-7.69-1.7-9.03-5.21c26.27-1.62,56.65,9.82,84.28,24.71
					C3217.77,2341.26,3216.2,2341.17,3214.62,2340.88z" opacity=".2"/></g></g></g><g><path fill="#fb8a77" d="M1150.8,826.3c0,0,108.91,89.28,153.61,92.31c48.43,3.29,178.43-76.58,178.43-76.58l27.53,40.47
				c0,0-156.91,137.05-225.02,137.27c-60.18,0.19-205.61-125.18-205.61-125.18L1150.8,826.3z"/><path fill="#fb8a77" d="M1482.84,842.04l20.05-16.55c0,0,0.93-80.33,12.04-70.15c11.12,10.19,17.35,25.02,17.35,25.02
				s16-33.38,31.75-22.62c15.75,10.77,49.18,50.53,32.9,63.14c-16.28,12.62-14.29,36.07-37.51,32.74
				c-18.25-2.63-49.05,28.88-49.05,28.88L1482.84,842.04z"/><path fill="#231f20" d="M986.73,2412.02c15.1-6.77,32.23-6.27,44.86-4.36c9.07,1.37,17.09,6.18,24.2,12.38
				c19.05,16.62,74.01,19.73,86.32,32.97c14.07,15.14-11.73,25.23-11.73,25.23h-139.5c-22.23,3.78-19.99-8.83-19.99-8.83
				S958.58,2424.64,986.73,2412.02z"/><path fill="#ff8d7d" d="M1039.23,2343.77v86.97c0,0-26.65,19.64-53.3,0v-86.97H1039.23z"/><polygon fill="#202234" points="897.09 1213.18 941.98 1825.96 979.06 2406.42 1046.68 2396.44 1110.31 1787.03 1039.23 1213.18"/><path fill="#231f20" d="M717.06,2416.82c16.02-3.97,33.03-0.9,45.35,2.8c8.85,2.66,16.17,8.33,22.38,15.17
				c16.64,18.32,71.01,29.58,81.42,43.74c11.89,16.18-15.27,21.6-15.27,21.6l-139.12-21.27c-22.7,0.12-18.68-11.23-18.68-11.23
				S687.2,2424.22,717.06,2416.82z"/><path fill="#ff8d7d" d="M783.92,2343.77l-18.1,86.97c0,0-26.65,19.64-53.31,0l18.1-86.97H783.92z"/><path fill="#232b57" d="M792.35,1246.15c0,0-44.89,52.37-41.15,179.55c3.74,127.19-0.22,325.44-0.22,325.44l-32.19,625.53
			c0,0,49.47,27.84,65.13,17.44c157.56-104.56,158.06-743.97,158.06-743.97s63.59-418.95,22.44-433.92
			C923.28,1201.27,792.35,1246.15,792.35,1246.15z"/><path fill="#4094f2" d="M1067.26,951.15c0,0,72.98,21.94,85.6,12.11c12.63-9.82,56.29-108.48,43.49-117.36
			c-12.8-8.88-143.75-89.38-218.06-91.46C978.28,754.44,1088.3,895.98,1067.26,951.15z"/><path fill="#231f20" d="M1196.35,845.9c-5-3.47-28.07-17.89-58.74-34.29c-3.29,4.17-6.17,8.67-9.05,13.11
			c-4.27,6.59-8.48,13.24-13.34,19.42c-4.49,5.71-9.65,11.17-16.02,14.79c-6.19,3.53-13.23,4.79-20.26,3.59
			c-1.91-0.33-3.96-0.71-5.7-1.6c-1.87-0.95-3.53-2.31-5.1-3.69c-3.88-3.42-7.3-7.32-11.17-10.74c-4.17-3.7-9.09-6.23-14.18-8.46
			c-3.58-1.57-7.27-2.87-11-4c24.41,41.84,45.84,89.95,35.48,117.12c0,0,72.98,21.94,85.6,12.11
			C1165.49,953.45,1209.14,854.79,1196.35,845.9z" opacity=".25"/><path fill="#4094f2" d="M915.79,737.43c168.33-4.55,168.33,216.96,168.33,216.96s34.42,263.71-28.06,314.22
			c-54.91,44.39-237.53,54.5-282.42,0c-47.57-57.74,0-299.25,0-299.25S718.91,742.74,915.79,737.43z"/><path fill="#231f20" d="M977.82,1265.6c-8.38-5.78-18.23-7.09-28.19-6.91c-10.66,0.2-21.26,1.41-31.92,0.46
			c-9.57-0.85-18.73-3.35-27.37-7.53c-8.37-4.06-16.4-8.84-24.24-13.84c-17.95-11.44-35.63-24.25-50.57-39.49
			c-6.54-6.67-12.09-13.75-15.77-22.4c-5.31-12.48-7.17-26.08-7.22-39.56c-0.11-29.53,7.37-58.48,7.69-88
			c0.48-44-6.66-87.29-14.48-130.45c-2.3,1.51-4.5,3.17-6.63,4.91c-3.83,3.14-7.45,6.54-11.06,9.94
			c2.04,21.95,5.58,36.61,5.58,36.61s-47.57,241.51,0,299.25c34.15,41.46,148.02,45.52,224.72,25.55
			C994.11,1282.9,987.82,1272.5,977.82,1265.6z" opacity=".25"/><path fill="#fb8a77" d="M766.66,953.94l-75.3,157.55l114.09,157.11l-25.89,39.22c0,0-175.82-126.2-191.07-192.59
			c-13.47-58.66,96.17-215.34,96.17-215.34L766.66,953.94z"/><path fill="#fb8a77" d="M805.45,1268.6l48.92,20.85c0,0,50.21-9.39,42.73,3.71c-7.48,13.09-20.58,10.04-20.58,10.04
			s36.09,8.24,29.07,25.97c-7.02,17.73-38.42,59.13-54.32,46.03c-15.9-13.09-37.41-8.65-39.28-32.03
			c-1.47-18.38-32.44-35.36-32.44-35.36L805.45,1268.6z"/><path fill="#4094f2" d="M773.65,969.35l-33.67,33.66c0,0-107.54-48.16-107.54-69.2c0-21.04,101.96-157.83,193.45-170.55
			C867.86,757.43,773.65,969.35,773.65,969.35z"/><path fill="#726658" d="M767.42,2319.99l86.39-532.7l0.03-394.05c48.09-15.83,69.82-87.44,70.73-90.5l-3.14-0.93
			c-0.22,0.74-22.49,74.14-69.71,88.67l-1.15,0.36v396.19l-86.36,532.44L767.42,2319.99z"/><path fill="#726658" d="M1014.22,2333.86c3.3-52.51,32.12-513.25,26.44-523.65c-4.35-7.98-52.15-208.45-76.82-313.34l-3.2,0.75
			c2.93,12.4,71.5,303.79,77.15,314.15c4.21,11.26-17.95,380.54-26.85,521.88L1014.22,2333.86z" opacity=".5"/><g><path fill="#fff" d="M1045.56 853.31c-28.95 15.34-62.61 26.61-94.23 23.66-15.8-1.47-29.14-9.71-43.55-17.21-14.14-7.35-30.98-12.33-44.27.23-2.64 2.5-5.19-3.14-2.58-5.61 26.1-24.66 55.78 8.81 81.84 14.73 17.22 3.91 35.42.94 52.44-3.2 16.82-4.08 33.19-10.5 48.99-18.87C1047.23 845.44 1048.56 851.72 1045.56 853.31L1045.56 853.31zM1052.23 913.19c-16.93 3.26-33.86 6.53-50.8 9.79-15.78 3.04-32.14 8.13-48.12 8.64-14.72.48-25.16-12.62-38.79-17.26-15.44-5.25-31.76-3.16-47.44-1.17-3.27.41-3.25-6.08 0-6.5 14.1-1.79 28.4-3.43 42.46-.36 6.64 1.45 13 4.13 19.01 8.01 7.36 4.76 13.91 10.38 22.47 10.78 8.47.4 17.17-2.28 25.52-3.88 7.85-1.51 15.69-3.02 23.54-4.54 16.93-3.26 33.86-6.53 50.79-9.79C1054.09 906.31 1055.47 912.57 1052.23 913.19L1052.23 913.19zM1041.51 964.32c-27.9 10.19-57.04 17.75-86.09 11.91-14.3-2.87-28.06-8.79-41.5-15.44-14.5-7.16-29.08-15.1-44.98-12.71-3.26.49-3.23-6.01 0-6.49 13.85-2.09 26.92 3.34 39.69 9.62 13.52 6.66 27.02 13.31 41.26 17.13 30.34 8.14 60.98.41 90.27-10.29C1043.32 956.9 1044.67 963.16 1041.51 964.32L1041.51 964.32z"/></g><g><path fill="#fb8a77" d="M891.03,647.25l-8.32,99.8c0,0,31.77,45.51,62.16,10.65l-2-66.96L891.03,647.25z"/><path fill="#33133f" d="M918.34,759.44c6.46-11.44,8.72-28.72-1.77-38.62c-4.25-4.01-9.72-6.46-13.82-10.64
				c-5.09-5.2-6.13-13.19-5.52-20.15c0.99-11.35,5.62-22.48,4.63-33.7l41,34.4l2,66.96c-11.87,13.61-23.94,14.95-34.25,11.54
				C913.59,766.42,916.23,763.18,918.34,759.44z" opacity=".15"/><path fill="#fb8a77" d="M1021.25,542.54c0,0,8.36,160.09-55.18,166.21c-63.54,6.13-92.61-60.36-92.61-60.36s-11.6,7.46-14.59-4.21
				c-2.99-11.67-17.3-32.08-3.49-40.14c13.82-8.06,18.5,4.7,18.5,4.7l-8.44-36.14C865.45,572.6,1018.67,490.11,1021.25,542.54z"/><path fill="#33133f" d="M868.35,612.11c0,0-8.46-4.38-11.69,2.22c-3.24,6.59,4.57,31.42,14.4,28.24c0,0-12.83-5.31-11.58-20.58
				C860.71,606.71,866.25,617,868.35,612.11z" opacity=".05"/><path fill="#202234" d="M869.83,605.1c4.58,6.57,42.31-60.04,68.99-46.13c26.69,13.91,58.79,8.75,68.33-4.63
				c9.54-13.39,37.53-11.8,14.64-50.84C980.06,432.32,775.49,469.64,869.83,605.1z"/><path fill="#33133f" d="M908.27 634.45c-.75 4.45 4.1 8.97 10.82 10.1 6.73 1.14 12.78-1.55 13.53-6 .75-4.44-4.09-8.97-10.82-10.1C915.08 627.32 909.02 630.01 908.27 634.45zM984.46 634.87c-.75 4.45 4.09 8.97 10.82 10.1 6.73 1.13 12.79-1.55 13.54-6 .75-4.45-4.1-8.97-10.82-10.1C991.27 627.74 985.21 630.43 984.46 634.87z" opacity=".05"/><path fill="#202234" d="M981.24 593.07c.65 0 1.28-.34 1.63-.94.3-.53 7.57-12.54 25.41-4.64.94.41 2.06 0 2.48-.96.42-.95-.01-2.06-.96-2.48-21.03-9.32-30.11 6.05-30.2 6.2-.51.9-.19 2.05.7 2.57C980.6 593 980.92 593.07 981.24 593.07zM944.76 593.4c.24 0 .47-.05.7-.14.96-.39 1.43-1.47 1.05-2.43-.07-.17-6.9-16.59-31.63-11.28-1.02.22-1.66 1.22-1.45 2.23.22 1.02 1.22 1.67 2.23 1.44 21.5-4.61 27.12 8.44 27.35 9C943.32 592.96 944.02 593.4 944.76 593.4zM966.18 640.9c.65 0 1.29-.09 1.92-.27 3.99-1.16 5.68-5.65 5.75-5.84.2-.56.13-1.18-.19-1.68-6.72-10.32-4.95-24.34-4.94-24.48.14-1.03-.58-1.97-1.61-2.11-.99-.16-1.98.58-2.11 1.61-.09.61-1.9 14.77 4.95 26.14-.54.99-1.55 2.36-2.91 2.74-1.28.36-2.82-.14-4.59-1.5-.82-.63-2-.47-2.63.35-.63.83-.47 2 .35 2.63C962.23 640.1 964.25 640.9 966.18 640.9z"/><path fill="#202234" d="M870.89,566.64c0,0-2.13,64.26,38.7,100.83c0,0,4.26-23.43,51.48-16.69c47.22,6.74,40.11,21.3,40.11,21.3
					s11.47-1.85,18.15-67.57c-1.03,41.47-2.64,53.11-2.64,53.11s-7.34,46.06-46.39,54.22c-39.05,8.17-96.38-14.37-96.48-64.52
					c0,0,2.75-33.11-6.12-52.28C858.82,575.87,854.56,568.07,870.89,566.64z"/><path fill="#fcfaf7" d="M978.27,659.81c0,0-21.45,9.72-45.48-1.46C927.34,668.33,955.82,694.32,978.27,659.81z"/><path fill="#202234" d="M986.94 608.66c0 5.86 3.25 10.61 7.26 10.61 4.01 0 7.25-4.75 7.25-10.61 0-5.86-3.25-10.6-7.25-10.6C990.19 598.06 986.94 602.81 986.94 608.66zM921.63 608.66c0 5.86 3.25 10.61 7.26 10.61 4.01 0 7.26-4.75 7.26-10.61 0-5.86-3.25-10.6-7.26-10.6C924.88 598.06 921.63 602.81 921.63 608.66z"/></g></g><path fill="#6ea4fe" d="M2639.49,811.61H1197.45c-48.11,0-87.11,39-87.11,87.11v550.09c0,48.11,39,87.11,87.11,87.11h1442.17
		c48.04,0,86.98-38.94,86.98-86.98V898.72C2726.59,850.61,2687.59,811.61,2639.49,811.61z"/><path fill="#5994ea" d="M2452.03,1175.22c0,0-3.79,70.68,51.79,65.07c55.58-5.61,222.83,100.84,222.83,100.84v-175.65
		L2452.03,1175.22z"/><g><path fill="#fb8a77" d="M2791.2,991.98l-35.42,132.25l-199.73,31.05l-1.59,42.12c0,0,177.19,28.29,227-2.7
			c44.01-27.38,92.84-185.37,92.84-185.37L2791.2,991.98z"/></g><g><path fill="#231f20" d="M2957.43,2412.15c-12.04-4.38-25.41-3.4-35.23-1.56c-7.05,1.32-13.16,5.11-18.51,9.88
					c-14.34,12.77-57.22,17.01-66.41,27.08c-10.5,11.51,10.01,17.92,10.01,17.92l109.1-5.02c17.51,1.95,15.34-7.14,15.34-7.14
					S2979.86,2420.31,2957.43,2412.15z"/><path fill="#fb8a77" d="M2916.3,2367.25l2.62,56.86c0,0,18.01,12.04,34.85-1.6l-2.62-56.86L2916.3,2367.25z"/><path fill="#202234" d="M3091.4,1365.08c0,0,69.69,62.4,44.55,175.14c-25.14,112.74-144.38,382.9-144.38,382.9l-24.98,468.52
				l-59.95,0.83l-63.84-524.86c0,0,61.08-552.42,100.33-558.7C2982.37,1302.62,3091.4,1365.08,3091.4,1365.08z"/><g><path fill="#231f20" d="M3552.13,2289.49c-12.31,2.67-22.92,10.5-30.12,17.19c-5.16,4.8-8.27,11.15-10.22,17.93
					c-5.22,18.15-38.66,44.16-41.02,57.36c-2.69,15.08,17.73,9.65,17.73,9.65l88.1-61.41c15.59-7.56,9.01-13.99,9.01-13.99
					S3575.07,2284.51,3552.13,2289.49z"/><path fill="#fb8a77" d="M3494.37,2273.72l32.01,45.92c0,0,21.3,0.56,28.14-19.62l-32.01-45.92L3494.37,2273.72z"/><path fill="#232b57" d="M3177.91,1317.64c0,0,12.84-11.47,62.46,92.84c28.01,58.88,29.87,186.98,29.87,186.98l67.52,218.73
				l208.37,462.76l-36.08,25.54l-323.42-434.05c0,0-277.28-517.7-246.14-542.4C2971.64,1303.34,3177.91,1317.64,3177.91,1317.64z"/></g><g><path fill="#4094f2" d="M2953.26,857.01c-74.94,10.83-170.77,83.5-184.25,176.88l91.95,24.44
				C2860.97,1058.33,3006.16,849.37,2953.26,857.01z"/><path fill="#231f20" d="M2838.56,1052.37l-18.18-4.83l62.41-132.4C2882.79,915.15,2863.28,1036.31,2838.56,1052.37z" opacity=".25"/><path fill="#4094f2" d="M2913.79,1373.57c0,0,26.35-192.12-4.67-226.32c-31.02-34.2-91.2-40.74-66.53-108.4
				c24.48-67.66,61.86-152.32,105.6-181.1c15.33-9.91,71.39-14.95,71.39-14.95s135.87-39.99,147.08,9.91
				c4.67,20.56,4.86,91.2,6.73,172.31c1.3,57.56,3.17,120.54,7.66,174.74c4.86,56.07,12.33,102.42,25.04,123.53
				C3238.23,1376.75,2913.79,1373.57,2913.79,1373.57z"/><path fill="#fb8a77" d="M3200.7,1016.66l100.14,117.45l-67.84,230.05l34.19,2.66c0,0,126.34-205.31,116.89-263.21
						c-8.35-51.15-135.41-156.99-135.41-156.99L3200.7,1016.66z"/><path fill="#fb8a77" d="M3215.4,1389.77c0,0-2.71-17.49,0.56-21.39c7.59-9.05,19.25-11.75,22.79-10.56
						C3228.58,1367.75,3215.4,1389.77,3215.4,1389.77z"/><path fill="#fff" d="M3223.43,1366.73c-2.31,0.27-4.6,0.94-6.93,1.04c7.59-8.55,18.78-11.12,22.25-9.96
						c-2.66,2.6-5.53,6.03-8.31,9.67C3228.15,1366.84,3225.83,1366.45,3223.43,1366.73z" opacity=".2"/><path fill="#fb8a77" d="M3267.24,1388.03c-1.34,3.28-2.86,6.49-4.55,9.37l0.01,0.01c-0.01,0.01-0.01,0.01-0.01,0.03
						c-0.08,0.15-0.44,0.94-0.98,2.08l-0.01,0.01c-0.43,0.91-1,2-1.64,3.15l0,0c0,0-6.35,13.41-10.81,13.2
						c-4.46-0.22-5.25-3.49-5.25-3.49s-3.12,3-6.93,1.14c-3.81-1.86-3.65-4.96-3.65-4.96s-2.8,2.85-7.14,0.75s-4.55-6.49-4.55-6.49
						s-4.5,4.03-8.2-2.45c-3.69-6.45,2.71-15.31,2.93-15.72c0.9-1.75,1.86-3.41,2.85-4.97c0.27-0.42,0.47-0.9,0.82-1.26
						c24.99-25.9,41.42-83.25,47.73-84.28c0,0,28.98,5.96,28.9,13.29c-2.48,6.35-29.58,59.39-29.58,59.39
						S3272.26,1375.73,3267.24,1388.03z"/><path fill="#fff" d="M3262.7,1397.4L3262.7,1397.4c0,0.02,0,0.02,0,0.04c-0.08,0.15-0.44,0.94-0.98,2.08l-0.01,0.01
						c-0.43,0.91-1,2-1.64,3.15l0,0c0,0-6.35,13.41-10.81,13.2c-4.46-0.22-5.25-3.49-5.25-3.49s-3.12,3-6.93,1.14
						c-3.81-1.86-3.65-4.96-3.65-4.96s-2.8,2.85-7.14,0.75s-4.55-6.49-4.55-6.49s-4.5,4.03-8.2-2.45c-1.33-2.32-1.34-4.95-0.81-7.38
						c1.23,2.52,3.29,4.93,5.83,6.06c0.65,0.29,1.35,0.49,2.07,0.52c0.82,0.04,1.63-0.15,2.44-0.18c1.77-0.07,2.88,1.31,4.06,2.45
						c1.52,1.48,3.14,2.77,5.24,3.24c1.58,0.35,3.2,0.22,4.8,0.21c1.68-0.02,3.34,0.22,4.77,1.18c1.36,0.92,2.61,1.82,4.24,2.19
						c2.82,0.65,5.45-0.63,7.48-2.53c1.4-1.32,2.48-2.91,3.6-4.46c1.45-2.02,2.86-4.08,4.27-6.13c2.42-3.51,4.84-6.97,6.82-10.75
						c-0.3,1.05-0.65,2.13-1.1,3.24C3265.91,1391.31,3264.39,1394.51,3262.7,1397.4z" opacity=".2"/><path fill="#231f20" d="M3181.04,1199.77c-6.91-16.07-15.51-32.89-25.6-47.47c-28.78-41.68-93.63-29.16-93.63-29.16
				c87.28-21.49,91.39-68.03,91.39-68.03c5.42-11.21,13.08-21.68,20.19-30.09C3174.69,1082.59,3176.56,1145.57,3181.04,1199.77z" opacity=".25"/><path fill="#4094f2" d="M3145.26,831.94c0,0,106.7,53.08,147.38,141.45c0,0-47.94,52.56-84.32,64.88l-42.78-31.48L3145.26,831.94z"/></g></g><path fill="#f56f58" d="M3048.76,835.6l12.66-3.66c0,0,26.65,61.4-44.89,69.82c-71.54,8.42-85.57-14.73-85.57-14.73
		s-4.67-19.3,13.47-28.1C2962.57,850.13,3048.76,835.6,3048.76,835.6z"/><g><path fill="#231f20" d="M2987.26,589.91c-13.78,3.75-65.45,3.74-85.44,33.52c-21.7,31.28,4.55,86.26-28.09,92.37
			c-35.39,0.67-20.11,44.75,9.81,64.06c14.52,9.67,48.02,16.15,63.1,24.51c24.28,15.97,69.15,24.19,102.93,18.41
			c34.04-4.71,57.01-23.42,43.54-36.54c-27.72-32.38,13.94-44.09-13.77-78.56c-22.33-30.42-11.48-39.12-17.91-53.16
			C3041.52,608.2,3022.35,585.99,2987.26,589.91z"/><path fill="#f18a66" d="M3019.85,756.14l9.61,95.27c0,0-29.62,44.03-59.24,11.21l0.8-64.05L3019.85,756.14z"/><path fill="#33133f" d="M2995.6,863.84c-6.37-10.83-8.81-27.31,1.05-36.95c3.99-3.9,9.19-6.34,13.03-10.4
			c4.78-5.05,5.64-12.71,4.95-19.35c-1.14-10.84-5.74-21.4-4.99-32.14l-38.63,33.56l-0.8,64.05c11.57,12.82,23.13,13.89,32.93,10.47
			C3000.26,870.44,2997.68,867.38,2995.6,863.84z" opacity=".15"/><path fill="#f18a66" d="M2893.63,658.2c0,0-5.34,153.18,55.51,157.98c60.84,4.81,87.53-59.24,87.53-59.24s11.21,6.94,13.88-4.27
			s16.01-30.95,2.67-38.43c-13.34-7.47-17.61,4.81-17.61,4.81l7.47-34.69C3043.07,684.35,2895.23,608.03,2893.63,658.2z"/><path fill="#33133f" d="M3041.5 721.15c0 0 8.01-4.33 11.21 1.92 3.21 6.25-3.84 30.12-13.29 27.23 0 0 12.17-5.29 10.73-19.86C3048.71 715.87 3043.59 725.8 3041.5 721.15zM3004.61 758.11c.71 4.25-3.92 8.57-10.35 9.66-6.43 1.08-12.23-1.48-12.94-5.73-.72-4.25 3.91-8.58 10.35-9.66C2998.1 751.29 3003.89 753.86 3004.61 758.11zM2931.76 758.51c.72 4.25-3.91 8.58-10.35 9.66-6.43 1.08-12.23-1.48-12.94-5.74-.72-4.25 3.91-8.58 10.35-9.66C2925.25 751.69 2931.04 754.26 2931.76 758.51z" opacity=".05"/><path fill="#231f20" d="M2934.84 718.54c-.62 0-1.23-.32-1.56-.9-.3-.51-7.25-12-24.3-4.43-.91.41-1.97-.01-2.37-.92-.4-.91.01-1.97.92-2.37 20.11-8.91 28.79 5.78 28.88 5.93.49.86.19 1.96-.67 2.45C2935.45 718.47 2935.14 718.54 2934.84 718.54zM2969.72 718.86c-.22 0-.45-.04-.67-.13-.92-.37-1.37-1.41-1-2.33.06-.16 6.6-15.84 30.24-10.79.97.21 1.59 1.16 1.38 2.14-.21.97-1.16 1.59-2.14 1.38-20.55-4.41-25.93 8.07-26.15 8.61C2971.1 718.44 2970.43 718.86 2969.72 718.86zM2949.24 764.27c-.62 0-1.23-.09-1.83-.26-3.81-1.11-5.42-5.4-5.49-5.58-.2-.53-.13-1.13.18-1.6 6.45-9.9 4.74-23.27 4.72-23.4-.13-.98.56-1.89 1.54-2.02 1.01-.13 1.89.56 2.02 1.54.08.59 1.81 14.12-4.74 24.99.52.94 1.48 2.25 2.78 2.63 1.21.35 2.69-.13 4.39-1.43.79-.6 1.92-.45 2.52.33.6.79.45 1.92-.33 2.52C2953.01 763.51 2951.08 764.27 2949.24 764.27z"/><path fill="#fcfaf7" d="M2937.68,782.35c0,0,20.51,9.29,43.48-1.39C2986.37,790.5,2959.15,815.35,2937.68,782.35z"/><path fill="#231f20" d="M2929.39 733.45c0 5.6-3.1 10.14-6.94 10.14s-6.94-4.54-6.94-10.14c0-5.6 3.11-10.14 6.94-10.14S2929.39 727.85 2929.39 733.45zM2991.83 733.45c0 5.6-3.11 10.14-6.94 10.14-3.83 0-6.94-4.54-6.94-10.14 0-5.6 3.11-10.14 6.94-10.14C2988.72 723.31 2991.83 727.85 2991.83 733.45z"/><path fill="#33133f" d="M2964.28,807.81c-1.9,0-3.14-0.28-3.26-0.31c-0.48-0.12-0.78-0.6-0.67-1.08c0.12-0.48,0.6-0.78,1.08-0.67
				c0.08,0.02,7.97,1.77,15.12-4.43c0.39-0.32,0.95-0.28,1.27,0.09c0.32,0.38,0.28,0.95-0.09,1.27
				C2972.75,806.99,2967.53,807.81,2964.28,807.81z" opacity=".05"/><path fill="#231f20" d="M2921.33,633.06c0.37-6.43,0.05-10.62,0.05-10.62c-63.25,5.6-32.82,71.25-32.82,71.25
			c21.96-10.98,29.4-34.19,31.83-51.15c16.99,23.26,70.19,51.11,129.65,52.31l7.45-13.17L2921.33,633.06z"/><path fill="#33133f" d="M2915.43,631.8c2.74,17.72,15.44,33.2,28.97,44.18c17.81,14.46,39.93,23.25,62.83,24.78
			c15.31,1.03,30.61-1.36,45.1-6.31c2.72-0.93,1.55-5.27-1.19-4.33c-23.73,8.11-49.21,8.57-72.88-0.02
			c-18.79-6.81-36.4-19.11-48.03-35.51c-5.1-7.18-9.1-15.22-10.46-23.99C2919.33,627.76,2915,628.97,2915.43,631.8L2915.43,631.8z"/></g><g><path fill="#fff" d="M1594 1067.29v192.76h-14.05v-91.69h-128.87v91.69h-14.03v-192.76h14.03v88.66h128.87v-88.66H1594zM1801.08 1247.38v12.67h-133.01v-192.76h128.87v12.67h-114.82v76h102.71v12.4h-102.71v79.03H1801.08zM1859.17 1067.29h14.05v180.09h110.97v12.67h-125.02V1067.29zM2027.15 1067.29h14.03v180.09h110.98v12.67h-125.02V1067.29zM2221.82 1248.62c-15.24-8.54-27.21-20.24-35.93-35.11s-13.07-31.48-13.07-49.84c0-18.35 4.35-34.97 13.07-49.83 8.72-14.88 20.69-26.57 35.93-35.11 15.24-8.54 32.31-12.81 51.23-12.81 18.9 0 35.97 4.23 51.21 12.67 15.24 8.45 27.21 20.1 35.93 34.98 8.72 14.87 13.07 31.57 13.07 50.11 0 18.54-4.35 35.25-13.07 50.12-8.72 14.87-20.69 26.53-35.93 34.98s-32.31 12.67-51.21 12.67C2254.13 1261.42 2237.06 1257.15 2221.82 1248.62zM2316.83 1237.47c13.02-7.34 23.31-17.49 30.84-30.43 7.51-12.95 11.28-27.4 11.28-43.38 0-15.97-3.77-30.43-11.28-43.37-7.53-12.94-17.82-23.08-30.84-30.43-13.04-7.34-27.64-11.01-43.79-11.01-16.16 0-30.8 3.68-43.93 11.01-13.13 7.34-23.45 17.49-30.98 30.43-7.53 12.94-11.3 27.4-11.3 43.37 0 15.98 3.77 30.43 11.3 43.38 7.53 12.94 17.85 23.08 30.98 30.43 13.13 7.35 27.76 11.01 43.93 11.01C2289.19 1248.48 2303.79 1244.82 2316.83 1237.47z"/></g><g opacity=".25"><path fill="#4094f2" d="M2115.8 620.66c0 4.53 3.67 8.2 8.2 8.2 4.53 0 8.19-3.67 8.19-8.2 0-4.53-3.67-8.2-8.19-8.2C2119.47 612.47 2115.8 616.14 2115.8 620.66zM2068.25 620.66c0 4.53 3.67 8.2 8.2 8.2 4.52 0 8.2-3.67 8.2-8.2 0-4.53-3.67-8.2-8.2-8.2C2071.92 612.47 2068.25 616.14 2068.25 620.66zM2020.7 620.66c0 4.53 3.67 8.2 8.2 8.2 4.52 0 8.2-3.67 8.2-8.2 0-4.53-3.67-8.2-8.2-8.2C2024.36 612.47 2020.7 616.14 2020.7 620.66z"/><circle cx="1981.34" cy="620.66" r="8.2" fill="#4094f2"/><circle cx="1933.79" cy="620.66" r="8.2" fill="#4094f2"/><path fill="#4094f2" d="M2100.84 661.14c0 4.53 3.67 8.2 8.19 8.2 4.53 0 8.2-3.67 8.2-8.2 0-4.53-3.67-8.19-8.2-8.19C2104.51 652.94 2100.84 656.61 2100.84 661.14zM2053.29 661.14c0 4.53 3.67 8.2 8.2 8.2 4.53 0 8.2-3.67 8.2-8.2 0-4.53-3.67-8.19-8.2-8.19C2056.96 652.94 2053.29 656.61 2053.29 661.14zM2005.74 661.14c0 4.53 3.67 8.2 8.2 8.2 4.53 0 8.2-3.67 8.2-8.2 0-4.53-3.67-8.19-8.2-8.19C2009.41 652.94 2005.74 656.61 2005.74 661.14zM1958.19 661.14c0 4.53 3.67 8.2 8.2 8.2 4.53 0 8.19-3.67 8.19-8.2 0-4.53-3.67-8.19-8.19-8.19C1961.86 652.94 1958.19 656.61 1958.19 661.14zM1910.64 661.14c0 4.53 3.67 8.2 8.2 8.2 4.53 0 8.2-3.67 8.2-8.2 0-4.53-3.67-8.19-8.2-8.19C1914.31 652.94 1910.64 656.61 1910.64 661.14zM1863.08 661.14c0 4.53 3.67 8.2 8.2 8.2 4.53 0 8.2-3.67 8.2-8.2 0-4.53-3.67-8.19-8.2-8.19C1866.76 652.94 1863.08 656.61 1863.08 661.14z"/></g><g opacity=".25"><path fill="#4094f2" d="M1495.29 1889.89c4.53 0 8.2-3.67 8.2-8.2 0-4.53-3.67-8.19-8.2-8.19-4.53 0-8.2 3.67-8.2 8.19C1487.09 1886.22 1490.76 1889.89 1495.29 1889.89zM1495.29 1937.44c4.53 0 8.2-3.67 8.2-8.2 0-4.52-3.67-8.2-8.2-8.2-4.53 0-8.2 3.67-8.2 8.2C1487.09 1933.77 1490.76 1937.44 1495.29 1937.44zM1495.29 1984.99c4.53 0 8.2-3.67 8.2-8.2 0-4.52-3.67-8.2-8.2-8.2-4.53 0-8.2 3.67-8.2 8.2C1487.09 1981.33 1490.76 1984.99 1495.29 1984.99z"/><circle cx="1495.29" cy="2024.35" r="8.2" fill="#4094f2"/><circle cx="1495.29" cy="2071.9" r="8.2" fill="#4094f2"/><path fill="#4094f2" d="M1535.76 1904.84c4.53 0 8.2-3.67 8.2-8.19 0-4.53-3.67-8.2-8.2-8.2-4.53 0-8.19 3.67-8.19 8.2C1527.57 1901.18 1531.23 1904.84 1535.76 1904.84zM1535.76 1952.4c4.53 0 8.2-3.67 8.2-8.2 0-4.53-3.67-8.2-8.2-8.2-4.53 0-8.19 3.67-8.19 8.2C1527.57 1948.73 1531.23 1952.4 1535.76 1952.4zM1535.76 1999.95c4.53 0 8.2-3.67 8.2-8.2 0-4.53-3.67-8.2-8.2-8.2-4.53 0-8.19 3.67-8.19 8.2C1527.57 1996.28 1531.23 1999.95 1535.76 1999.95zM1535.76 2047.5c4.53 0 8.2-3.67 8.2-8.2 0-4.53-3.67-8.19-8.2-8.19-4.53 0-8.19 3.67-8.19 8.19C1527.57 2043.83 1531.23 2047.5 1535.76 2047.5zM1535.76 2095.05c4.53 0 8.2-3.67 8.2-8.2 0-4.53-3.67-8.2-8.2-8.2-4.53 0-8.19 3.67-8.19 8.2C1527.57 2091.38 1531.23 2095.05 1535.76 2095.05zM1535.76 2142.6c4.53 0 8.2-3.67 8.2-8.2 0-4.53-3.67-8.2-8.2-8.2-4.53 0-8.19 3.67-8.19 8.2C1527.57 2138.93 1531.23 2142.6 1535.76 2142.6z"/></g><g><path fill="#fb8a77" d="M2488.78,1213.37c11.64-0.09,22.02-0.69,27.3-1.81c4.07-0.86,7.89-2.15,11.33-3.61
			c2.95-1.26,5.62-2.64,7.94-3.99c6.05-3.47,9.72-6.71,9.72-6.71l86.2,3.5c3.84-16.26,0.75-39.06,0-42.93c0,0-79.49,3.93-90.9-5.59
			c-0.11-0.06-0.23-0.17-0.32-0.26c-0.11-0.17-0.23-0.37-0.34-0.57c-1.89-2.84-6.34-5.68-11.73-7.91c-3.96-1.63-8.4-2.95-12.67-3.76
			c-10.44-1.95-22.14-28.59-27.93-25.52c-5.79,3.1-3.18,20.39,3.79,25.81c6.94,5.42,2.01,11.59-6.39,11.59h-2.64
			c-16.78,0-68.68,0.26-70,8.66c-0.86,5.48,20.68,7.54,37.39,8.32c-20.48-0.2-49.84,0.57-47.75,6.65
			c1.61,4.67,31.32,7.54,47.92,8.98c-11.47,0.06-34.15,1-34.24,4.93c-0.17,8.49,23.34,9.66,39.2,9.49
			c-9.43,0.75-20.16,2.61-20.82,7.14C2433.06,1211.3,2463.86,1213.6,2488.78,1213.37z"/><path fill="#231f20" d="M2477.93 1169.67c-.03 0-.05.03-.07.02l-25.85-1.76 25.91.32c.01 0 .03 0 .04 0 .05 0 1-5.4 1.85-8.01-.66 3.89-.91 7.81-1.02 11.72-.03 1.45-.04 2.91-.03 4.36C2478.76 1176.33 2477.84 1170.42 2477.93 1169.67zM2477.9 1186.02c-.02 0-.03.02-.05.02l-25.85-1.76 25.73.32c-.1-3.89 1.05-6.45 1.05-6.45.04 1.85.11 3.7.27 5.54.15 2.23.54 4.45 1.03 6.66C2479.75 1190.41 2478.13 1187.55 2477.9 1186.02zM2481.17 1198.85l-25.91-.17 25.69-1.26c-.24-.66-.87-5.23-.47-5.3 0 0 0 0 .01 0 .25.99.5 1.99.77 2.97 1.04 3.76 2.27 7.47 3.58 11.17C2483.53 1203.85 2481.28 1198.85 2481.17 1198.85z" opacity=".25"/></g><path fill="#fb8a77" d="M1551.35,789.42c0,0-0.89,0.88-2.32,2.36c-0.05-5.73-1.36-12.2-6.97-12.71
		c-10.21-0.93-38.91,38.31-29.95,42.02c4,1.65,11.62-2.23,18.84-7.03c-4.97,8.04-3.65,18.98,4.18,20.32
		c11.61,1.98,17.75-10.47,23.3-17.57c-6.78,10.78-10.57,28.83-2.59,28.51c11.59-0.46,25.17-24.38,25.17-24.38s-12.05,19.46,0,24.1
		c10.13,3.89,20.27-33.42,20.27-33.42S1584.72,770.42,1551.35,789.42z"/></svg>